Coordinates
version=1
nRows=17
nColumns=38
inDegrees=no

Units are S.I. units (second, meters, Newtons, ...)
If the header above contains a line with 'inDegrees', this indicates whether rotational values are in degrees (yes) or radians (no).

endheader
time	pelvis_tilt	pelvis_list	pelvis_rotation	pelvis_tx	pelvis_ty	pelvis_tz	hip_flexion_r	hip_adduction_r	hip_rotation_r	knee_angle_r	ankle_angle_r	subtalar_angle_r	mtp_angle_r	hip_flexion_l	hip_adduction_l	hip_rotation_l	knee_angle_l	ankle_angle_l	subtalar_angle_l	mtp_angle_l	lumbar_extension	lumbar_bending	lumbar_rotation	arm_flex_r	arm_add_r	arm_rot_r	elbow_flex_r	pro_sup_r	wrist_flex_r	wrist_dev_r	arm_flex_l	arm_add_l	arm_rot_l	elbow_flex_l	pro_sup_l	wrist_flex_l	wrist_dev_l
15	-0.439678	1.50177	-1.02091	0.859724	0.624762	1.07641	0.28735	-0.0920286	0.164481	0.387863	-0.29668	0	0	-0.139682	-0.0684392	-0.378784	0.350598	-0.186713	0	0	-0.119201	0.128521	-0.118862	0.861531	-0.388733	1.29245	1.33682	0.890383	0	0	0.734222	-0.457923	1.25339	1.48189	1.5708	0	0
15.01	-0.466206	1.50642	-0.993368	0.858389	0.621452	1.07593	0.291415	-0.0957676	0.163548	0.36799	-0.301424	0	0	-0.1372	-0.069107	-0.376998	0.350408	-0.186966	0	0	-0.114096	0.134942	-0.126645	0.867548	-0.382119	1.30203	1.32985	0.889208	0	0	0.730707	-0.443851	1.29103	1.42392	1.54178	0	0
15.02	-0.430656	1.50518	-1.02767	0.856806	0.618428	1.07565	0.287646	-0.0995044	0.162245	0.348076	-0.307309	0	0	-0.142004	-0.0703944	-0.377791	0.351842	-0.18581	0	0	-0.119309	0.129675	-0.119226	0.857739	-0.392303	1.28343	1.33674	0.888889	0	0	0.726636	-0.451296	1.24056	1.46855	1.5708	0	0
15.03	-0.424429	1.5069	-1.03288	0.855195	0.615053	1.07521	0.287105	-0.102569	0.161658	0.328148	-0.312162	0	0	-0.143401	-0.0712866	-0.377262	0.352416	-0.185083	0	0	-0.119656	0.130626	-0.121684	0.859054	-0.392685	1.28243	1.33647	0.891492	0	0	0.717212	-0.450259	1.22561	1.46395	1.5708	0	0
15.04	-0.414838	1.50846	-1.04143	0.853525	0.611591	1.07475	0.285811	-0.105541	0.161435	0.307819	-0.31858	0	0	-0.144935	-0.0720588	-0.376508	0.353206	-0.1841	0	0	-0.119983	0.13149	-0.123735	0.860364	-0.394033	1.28138	1.33676	0.897354	0	0	0.707823	-0.449949	1.21054	1.46008	1.5708	0	0
15.05	-0.400175	1.51013	-1.05485	0.851807	0.608051	1.07425	0.284748	-0.108787	0.160767	0.289097	-0.324091	0	0	-0.146636	-0.072633	-0.375475	0.353857	-0.183131	0	0	-0.120934	0.132195	-0.125291	0.859816	-0.396591	1.27603	1.33895	0.898244	0	0	0.698397	-0.449757	1.19453	1.457	1.5708	0	0
15.06	-0.38012	1.51174	-1.07344	0.850028	0.604418	1.07371	0.283497	-0.111958	0.159608	0.271651	-0.326857	0	0	-0.148546	-0.0730789	-0.374169	0.354419	-0.182218	0	0	-0.122228	0.132614	-0.126693	0.858662	-0.39986	1.26858	1.34183	0.895427	0	0	0.688669	-0.449417	1.17728	1.45427	1.5708	0	0
15.07	-0.358944	1.51308	-1.09314	0.848147	0.600619	1.0731	0.282008	-0.114575	0.158341	0.256076	-0.325611	0	0	-0.150996	-0.0739845	-0.373423	0.355011	-0.181142	0	0	-0.12353	0.133026	-0.128179	0.85766	-0.403599	1.26131	1.34485	0.89247	0	0	0.678788	-0.449228	1.15967	1.45232	1.5708	0	0
15.08	-0.334918	1.51436	-1.1157	0.846196	0.596654	1.07241	0.280055	-0.116945	0.15719	0.241521	-0.321163	0	0	-0.153767	-0.0748731	-0.372768	0.355446	-0.179959	0	0	-0.124576	0.133369	-0.129684	0.856322	-0.407836	1.25385	1.34785	0.890159	0	0	0.668189	-0.449608	1.14122	1.45151	1.5708	0	0
15.09	-0.308627	1.5156	-1.14039	0.84416	0.592514	1.07166	0.277517	-0.119114	0.155875	0.227421	-0.315836	0	0	-0.15673	-0.0757469	-0.371804	0.355895	-0.178544	0	0	-0.125168	0.133608	-0.131309	0.854418	-0.412432	1.24585	1.35052	0.888521	0	0	0.657033	-0.450077	1.12187	1.45062	1.5708	0	0
15.1	-0.280425	1.51657	-1.16686	0.842019	0.588163	1.07087	0.274228	-0.120938	0.15402	0.213715	-0.31181	0	0	-0.15991	-0.076831	-0.371136	0.356726	-0.176956	0	0	-0.125763	0.133854	-0.132924	0.852044	-0.4176	1.23657	1.35302	0.887213	0	0	0.645392	-0.450623	1.10145	1.44973	1.5708	0	0
15.11	-0.248447	1.5177	-1.19686	0.839822	0.583641	1.07002	0.271257	-0.122771	0.151557	0.201981	-0.309512	0	0	-0.163377	-0.0778694	-0.370255	0.357112	-0.175565	0	0	-0.125716	0.133926	-0.134687	0.84925	-0.423006	1.22581	1.3545	0.886241	0	0	0.634618	-0.451705	1.0828	1.44881	1.5708	0	0
15.12	-0.212679	1.51852	-1.23038	0.837597	0.579012	1.06918	0.267565	-0.124322	0.148394	0.190859	-0.307441	0	0	-0.167438	-0.0790512	-0.368948	0.357148	-0.174171	0	0	-0.126177	0.133949	-0.136601	0.845404	-0.428944	1.21264	1.35625	0.885529	0	0	0.623089	-0.452197	1.0627	1.4476	1.5708	0	0
15.13	-0.174339	1.51881	-1.26632	0.835278	0.574222	1.06836	0.262496	-0.125254	0.144835	0.179905	-0.304444	0	0	-0.171916	-0.0804074	-0.36721	0.357386	-0.172666	0	0	-0.127417	0.133993	-0.138483	0.840232	-0.435527	1.19689	1.3586	0.885633	0	0	0.610091	-0.451984	1.03954	1.44602	1.5708	0	0
15.14	-0.132356	1.51853	-1.30561	0.83285	0.569238	1.06755	0.256069	-0.125725	0.140371	0.16965	-0.298572	0	0	-0.177013	-0.0820868	-0.365211	0.357926	-0.170564	0	0	-0.129188	0.133339	-0.138214	0.829532	-0.444576	1.17311	1.36286	0.899893	0	0	0.599078	-0.449718	1.01808	1.4425	1.5708	0	0
15.15	-0.0906517	1.51873	-1.34454	0.830281	0.564071	1.06658	0.250145	-0.125691	0.13644	0.162275	-0.29483	0	0	-0.180878	-0.0843423	-0.364314	0.360272	-0.169196	0	0	-0.127393	0.132461	-0.135258	0.817661	-0.456065	1.15064	1.36596	0.901803	0	0	0.597526	-0.446425	1.0126	1.43296	1.5708	0	0
15.16	-0.0355344	1.51838	-1.39632	0.827483	0.558691	1.06555	0.243087	-0.125782	0.132151	0.156793	-0.2942	0	0	-0.185173	-0.0864742	-0.362858	0.363001	-0.167555	0	0	-0.0804544	0.131675	-0.0637073	0.737639	-0.520331	1.07424	1.36799	0.891115	0	0	0.767146	-0.34069	1.30471	1.27802	1.5708	0	0
